<svg width="228" height="60" viewBox="0 0 228 60" fill="none" xmlns="http://www.w3.org/2000/svg">
<path d="M157.085 47.4779C157.085 43.3979 158.796 37.8959 160.985 32.5259C160.693 32.5885 160.394 32.6115 160.096 32.5943C159.912 32.5827 159.732 32.5346 159.566 32.453C159.401 32.3713 159.254 32.2576 159.133 32.1185C159.012 31.9794 158.92 31.8177 158.862 31.6427C158.804 31.4677 158.781 31.2829 158.795 31.0991C158.795 30.1469 159.343 29.6027 160.506 29.2625C161.2 29.0352 161.909 28.8548 162.628 28.7225C165.128 23.1749 168.252 17.9298 171.938 13.0883C167.489 14.2433 163.45 16.2839 160.781 19.0019C159.798 19.98 159.213 21.2879 159.138 22.6727C159.138 23.8943 158.453 24.7781 156.879 24.7781C156.195 24.7781 155.237 24.3707 155.237 22.5353C155.237 16.6241 165.229 11.7293 175.157 9.6239C175.979 8.9441 176.663 8.4689 177.278 8.4689C177.546 8.45145 177.814 8.50508 178.054 8.62436C178.294 8.74363 178.499 8.92432 178.647 9.1481C180.691 8.9007 182.748 8.78686 184.807 8.8073C190.076 8.8073 192.199 10.3715 192.199 12.3407C192.221 12.6663 192.171 12.9927 192.054 13.2972C191.937 13.6016 191.754 13.8768 191.519 14.1034C191.285 14.3301 191.003 14.5028 190.695 14.6094C190.386 14.7161 190.058 14.7541 189.734 14.7209C189.337 14.7192 188.956 14.5613 188.674 14.2813C188.392 14.0013 188.232 13.6217 188.228 13.2245C188.228 12.0695 186.174 11.3903 185.08 11.3903C182.674 11.4042 180.273 11.5859 177.893 11.9339C173.993 15.0587 170.158 22.0601 167.078 27.9725C169.122 27.7076 171.178 27.549 173.238 27.4973C174.127 27.4973 175.154 27.7001 175.154 28.9241C175.154 30.3515 173.443 30.4193 172.348 30.4193C170.104 30.4787 167.864 30.6601 165.64 30.9629C162.835 36.6713 160.712 42.4481 160.712 45.8459C160.712 46.5257 161.054 47.5463 161.054 48.3611C161.059 48.6315 161.01 48.9002 160.908 49.1509C160.806 49.4015 160.655 49.629 160.463 49.8195C160.271 50.0101 160.042 50.1597 159.791 50.2595C159.539 50.3592 159.27 50.407 159 50.3999C158.18 50.3999 157.085 49.9925 157.085 47.4779ZM79.2552 45.9827C79.2552 44.7599 80.1456 37.2161 85.5552 27.4973C89.112 21.2447 91.7814 17.8457 93.561 16.1477C94.7246 15.0589 95.7512 14.5151 96.6408 14.5163C97.8732 14.5163 98.352 15.2639 98.352 16.2839C98.352 17.0993 97.392 17.9831 96.2316 19.0697C93.3692 21.8005 90.924 24.9374 88.9746 28.3799C83.8422 37.2821 83.0892 43.0583 83.0892 46.4573C83.0892 47.2049 83.0892 48.2927 81.8568 48.2927C80.8986 48.2945 79.2552 47.4779 79.2552 45.9827ZM214.585 42.7199C214.569 42.4942 214.6 42.2677 214.675 42.0544C214.75 41.8411 214.869 41.6456 215.023 41.48C215.177 41.3143 215.363 41.1821 215.571 41.0916C215.778 41.001 216.002 40.954 216.228 40.9535C216.981 40.9535 217.665 41.2925 217.665 42.2447C217.665 43.1969 218.28 43.7399 219.377 43.7399C219.668 43.7371 219.956 43.6767 220.224 43.5623C220.492 43.4479 220.735 43.2816 220.938 43.0731C221.142 42.8646 221.302 42.6179 221.41 42.3472C221.518 42.0766 221.571 41.7872 221.567 41.4959C221.567 40.2731 220.334 39.5933 219.308 39.0503C218.6 38.7114 217.962 38.2434 217.426 37.6703C214.11 41.4713 208.969 46.1171 202.195 46.1171C199.936 46.1171 198.019 44.3507 198.019 41.3609C198.019 40.9535 197.678 40.7483 197.678 40.0007C197.71 39.6232 197.849 39.2628 198.08 38.9619C198.31 38.6611 198.621 38.4324 198.977 38.3027C201.578 32.2541 206.301 29.2625 209.86 29.2625C211.297 29.2625 212.872 30.3515 212.872 31.8467C212.872 35.3801 207.123 39.3899 202.605 40.4087C201.715 40.6133 201.442 41.0897 201.442 41.5637C201.486 42.0494 201.704 42.5027 202.057 42.8402C202.409 43.1777 202.871 43.3766 203.358 43.4003C209.107 43.4003 213.693 38.1671 216.157 35.1761C216.463 34.7975 216.778 34.4093 217.091 34.0709C218.38 31.1759 222.607 28.9235 225.194 28.9235C226.493 28.9235 227.999 30.0101 227.999 31.4387C227.999 32.9987 227.039 35.4473 225.536 35.4473C225.339 35.4771 225.137 35.4615 224.946 35.4015C224.755 35.3416 224.58 35.239 224.435 35.1014C224.29 34.9639 224.178 34.795 224.108 34.6077C224.038 34.4204 224.011 34.2196 224.03 34.0205C224.03 33.3413 224.783 32.7965 224.783 32.2541C224.783 31.9817 224.577 31.7777 224.167 31.7777C223.276 31.7777 220.196 33.6809 220.196 35.3777C220.196 35.9213 220.882 36.4655 221.704 36.8741C223.141 37.6205 225.124 38.5721 225.124 41.1539C225.124 43.5329 223.001 46.1147 218.963 46.1147C216.364 46.1177 214.585 44.4197 214.585 42.7199ZM202.4 37.9625C204.864 37.4873 209.52 34.1579 209.52 32.9999C209.52 32.5925 209.383 32.3201 208.972 32.3201C207.328 32.3225 203.7 35.9243 202.4 37.9637V37.9625ZM114.1 41.5079C111.084 44.0279 107.276 46.1177 102.734 46.1177C100.475 46.1177 98.559 44.3513 98.559 41.3615C98.559 40.9541 98.2164 40.7489 98.2164 40.0013C98.2486 39.6237 98.3882 39.2631 98.6187 38.9622C98.8492 38.6613 99.1609 38.4327 99.5172 38.3033C102.12 32.2547 106.842 29.2631 110.4 29.2631C111.84 29.2631 113.412 30.3521 113.412 31.8473C113.412 35.3807 107.662 39.3905 103.145 40.4093C102.254 40.6139 101.981 41.0903 101.981 41.5643C102.026 42.0499 102.244 42.5031 102.597 42.8405C102.949 43.1779 103.411 43.3769 103.898 43.4009C109.647 43.4009 114.233 38.1677 116.697 35.1767C116.822 35.0213 116.95 34.8641 117.077 34.7093C119.707 31.0685 123.174 29.2631 125.939 29.2631C127.376 29.2631 128.95 30.3521 128.95 31.8473C128.95 35.3807 123.2 39.3905 118.682 40.4093C117.793 40.6139 117.519 41.0903 117.519 41.5643C117.563 42.05 117.782 42.5033 118.134 42.8408C118.486 43.1783 118.948 43.3772 119.435 43.4009C125.186 43.4009 129.772 38.1677 132.235 35.1767C132.501 34.8467 132.775 34.5095 133.048 34.2041C133.43 33.1907 133.721 32.3441 133.88 31.7789C134.426 30.0113 134.906 28.9919 136 28.9919C136.891 28.9919 137.506 29.4683 137.506 30.2159C137.244 31.4318 136.854 32.6166 136.343 33.7505C139.15 30.8951 141.683 28.7207 143.462 28.7207C143.809 28.6905 144.159 28.7363 144.487 28.855C144.814 28.9737 145.113 29.1624 145.36 29.408C145.608 29.6535 145.799 29.95 145.92 30.2769C146.041 30.6038 146.09 30.9531 146.062 31.3007C146.062 33.6113 145.516 35.5817 143.529 35.5817C143.349 35.5874 143.169 35.5562 143.001 35.49C142.833 35.4239 142.68 35.3241 142.552 35.1969C142.424 35.0697 142.323 34.9177 142.256 34.7502C142.189 34.5826 142.156 34.4032 142.161 34.2227C142.161 33.6113 142.641 32.7275 142.641 32.3873C142.641 32.1845 142.573 32.0471 142.231 32.0471C141.34 32.0471 136.961 36.1931 134.702 39.4559C133.917 40.6806 133.253 41.9787 132.72 43.3319C132.171 44.6909 131.557 45.9827 131.145 45.9827C130.69 45.9697 130.256 45.789 129.927 45.4753C129.597 45.1616 129.395 44.7371 129.36 44.2835C129.555 43.1206 129.884 41.9843 130.342 40.8977C127.222 43.6835 123.175 46.1177 118.271 46.1177C116.052 46.1177 114.161 44.4089 114.1 41.5079ZM118.48 37.9637C120.942 37.4873 125.597 34.1579 125.597 32.9999C125.597 32.5925 125.459 32.3201 125.049 32.3201C123.407 32.3225 119.779 35.9243 118.478 37.9637H118.48ZM102.94 37.9637C105.404 37.4873 110.058 34.1579 110.058 32.9999C110.058 32.5925 109.922 32.3201 109.511 32.3201C107.868 32.3225 104.24 35.9243 102.94 37.9637ZM172.42 42.2459C172.42 39.2543 175.91 32.5949 176.457 31.5749C177.279 30.2159 177.964 29.1281 178.922 29.1281C179.881 29.1281 180.634 29.6717 180.634 30.5555C180.634 31.5059 180.154 31.9823 179.743 32.5955C177.758 35.7887 175.843 40.4783 175.843 41.8385C175.832 42.1085 175.926 42.3725 176.104 42.575C176.283 42.7776 176.534 42.903 176.803 42.9251C178.652 42.9251 183.579 38.3051 185.906 35.1773C186.219 34.7885 186.542 34.3901 186.866 34.0457C186.866 34.0149 186.866 33.9841 186.866 33.9533C186.866 33.0029 186.661 32.4593 186.661 31.9133C186.65 31.6978 186.683 31.4824 186.757 31.2798C186.831 31.0771 186.944 30.8912 187.091 30.733C187.238 30.5749 187.414 30.4476 187.611 30.3587C187.808 30.2698 188.02 30.221 188.236 30.2153C189.262 30.2153 190.288 31.0991 190.288 33.0023C190.288 34.6325 189.673 37.3511 189.125 39.4589C188.9 40.2874 188.717 41.1267 188.577 41.9735C188.577 42.2459 188.713 42.3125 188.851 42.3125C190.426 42.3125 196.928 33.8171 196.928 27.4979C196.928 26.4101 195.968 25.5953 195.968 24.4379C195.955 23.9982 196.112 23.5704 196.404 23.2421C196.697 22.9138 197.105 22.7099 197.543 22.6721C198.503 22.6721 200.006 22.8071 200.006 27.0881C200.006 33.2729 192.544 45.6431 187.754 45.6431C186.996 45.6227 186.276 45.3045 185.751 44.7574C185.225 44.2103 184.937 43.4783 184.947 42.7199C185.088 41.6034 185.364 40.5081 185.768 39.4577C185.815 39.2941 185.862 39.1297 185.909 38.9645C182.59 42.3443 178.182 45.8459 175.432 45.8459C173.992 45.8465 172.418 44.6237 172.418 42.2453L172.42 42.2459ZM90.6858 30.9635C90.6858 29.5367 92.397 29.3333 93.5604 29.3333C100.2 29.3333 107.25 22.0607 107.25 17.3033C107.25 13.2233 104.923 11.1833 99.9264 11.1833C87.675 11.1857 75.8328 20.6999 75.8328 26.6135C75.8328 27.2249 76.3806 27.7685 76.3806 28.4477C76.3673 28.7302 76.2983 29.0074 76.1774 29.2631C76.0565 29.5188 75.8863 29.7481 75.6764 29.9377C75.4665 30.1274 75.2212 30.2736 74.9546 30.368C74.6879 30.4624 74.4052 30.5031 74.1228 30.4877C72.8208 30.4871 72 29.1281 72 28.0415C72 17.9831 85.7586 8.3999 100.885 8.3999C107.045 8.3999 110.741 11.1179 110.741 16.8953C110.741 23.8943 101.432 32.9339 93.4926 32.9339C91.5084 32.9339 90.6858 32.2547 90.6858 30.9635ZM183.371 19.4099C183.424 18.7522 183.719 18.1376 184.2 17.6853C184.68 17.233 185.311 16.9752 185.971 16.9619C186.792 16.9619 187.615 17.3705 187.615 19.0019C187.615 20.7677 185.765 21.8561 184.876 21.8561C183.78 21.8567 183.371 20.4287 183.371 19.4099Z" fill="black"/>
<path d="M9.4338 0H50.5662C53.0682 0 55.4677 0.993916 57.2369 2.7631C59.0061 4.53228 60 6.9318 60 9.4338V50.5662C60 53.0682 59.0061 55.4677 57.2369 57.2369C55.4677 59.0061 53.0682 60 50.5662 60H9.4338C6.9318 60 4.53228 59.0061 2.7631 57.2369C0.993916 55.4677 0 53.0682 0 50.5662L0 9.4338C0 6.9318 0.993916 4.53228 2.7631 2.7631C4.53228 0.993916 6.9318 0 9.4338 0Z" fill="#FFC50D"/>
<path d="M36.4537 14.7552C36.4537 14.7552 28.0741 16.9205 30.7015 17.7083C33.3289 18.4961 40.5625 22.1604 42.7981 28.455C45.0337 34.7496 43.4455 31.0787 43.4455 31.0787C43.4455 31.0787 45.3775 29.6957 46.0255 29.8787C46.6735 30.0617 47.3551 30.2796 47.3677 30.5652C47.3803 30.8508 47.7985 34.0086 45.1699 34.0254C42.5413 34.0422 44.7703 35.1438 44.7703 35.1438C44.7703 35.1438 42.9409 47.5409 38.7385 48.2771C34.5361 49.0133 26.6557 48.2771 26.6557 48.2771H19.6705C19.6705 48.2771 13.9627 42.0371 14.5171 36.4757C14.6401 35.2409 14.7985 34.1099 14.9971 32.9225C15.0289 32.7335 12.9253 31.6691 12.9925 31.3025C13.0525 30.9677 12.4441 29.2583 12.6325 28.8023C12.9271 28.0751 13.7203 28.0511 14.5129 27.8225C15.1084 27.6518 15.7171 27.5314 16.3327 27.4626C16.3327 27.4626 18.5851 20.5565 20.9563 18.0569C23.3275 15.5573 26.7943 11.637 32.4001 10.8018C31.2973 11.646 25.9291 14.4126 26.5297 17.3124C28.0218 16.0343 29.8133 15.1551 31.7371 14.7569C33.3063 14.6188 34.8845 14.6182 36.4537 14.7552Z" fill="white"/>
<path d="M46.8132 49.1998C46.5745 49.1998 46.3456 49.105 46.1768 48.9362C46.0081 48.7674 45.9132 48.5385 45.9132 48.2998C45.9132 48.0611 46.0081 47.8322 46.1768 47.6634C46.3456 47.4946 46.5745 47.3998 46.8132 47.3998H49.5036C49.7423 47.3998 49.9712 47.4946 50.14 47.6634C50.3088 47.8322 50.4036 48.0611 50.4036 48.2998C50.4036 48.5385 50.3088 48.7674 50.14 48.9362C49.9712 49.105 49.7423 49.1998 49.5036 49.1998H46.8132ZM16.3254 49.1998C16.0867 49.1998 15.8578 49.105 15.689 48.9362C15.5203 48.7674 15.4254 48.5385 15.4254 48.2998C15.4254 48.0611 15.5203 47.8322 15.689 47.6634C15.8578 47.4946 16.0867 47.3998 16.3254 47.3998H17.82C17.1405 46.9107 16.557 46.3005 16.0986 45.5998C15.4682 44.6611 14.9639 43.6436 14.5986 42.5734C14.0513 40.9634 13.6889 39.2962 13.5186 37.6042C13.143 33.8302 13.3986 33.2182 13.4874 33.1204C13.4949 33.1108 13.5052 33.1037 13.5168 33.1C13.1042 32.902 12.7414 32.6137 12.4554 32.2564C12.1592 31.8884 11.9428 31.4628 11.82 31.0066C11.654 30.3643 11.6234 29.6946 11.73 29.0398C11.7777 28.3924 12.0768 27.7894 12.5634 27.3598C12.9445 27.0781 13.4099 26.9342 13.8834 26.9518C14.3744 26.9612 14.8597 27.0588 15.3162 27.2398V27.2344C15.7847 25.6762 16.3654 24.1541 17.0538 22.6798C17.6905 21.2918 18.438 19.9573 19.2888 18.6892C20.1793 17.34 21.2573 16.1244 22.4904 15.079C24.5205 13.4104 26.8645 12.1659 29.3838 11.419C30.4235 11.0969 31.4953 10.8892 32.58 10.7998C31.8689 10.9686 31.171 11.1892 30.492 11.4598C28.4588 12.3603 26.5145 13.4495 24.6846 14.713C22.5372 16.2166 22.0632 17.44 20.5386 19.5694C18.601 22.1636 17.2265 25.1338 16.503 28.2898C15.6852 31.783 15.0372 34.9798 15.3168 37.7398C15.4861 39.7646 16.0679 41.7334 17.0262 43.525C17.6013 44.6461 18.3672 45.6587 19.2894 46.5172C19.5228 46.7092 19.7136 47.2816 19.893 47.4004H39.213C39.4904 47.1197 39.7532 46.8249 40.0002 46.5172C40.8834 45.4099 41.6018 44.1808 42.1332 42.868C42.9068 40.9427 43.3028 38.8865 43.2996 36.8116C43.2649 33.9105 42.669 31.0436 41.5446 28.369C40.6844 26.1635 39.3706 24.1631 37.6884 22.4974C36.3118 21.1634 34.7062 20.0882 32.9484 19.3234C30.6482 18.3256 28.1716 17.7983 25.6644 17.7724C25.3554 17.7724 25.1844 17.7838 25.1808 17.7838V17.7796C25.8321 17.0063 26.5854 16.3251 27.42 15.7546C28.2477 15.1757 29.1472 14.7071 30.096 14.3608C31.2502 13.9423 32.4684 13.7281 33.696 13.7278C36.2646 13.7278 37.1802 14.2372 37.1802 14.7148C37.1802 15.1924 36.3192 15.5896 35.2998 15.5896C35.063 15.5892 34.8266 15.5692 34.593 15.5296C33.9318 15.4181 33.2626 15.3613 32.592 15.3598C30.7498 15.3012 28.9373 15.8343 27.42 16.8808C29.1588 16.9263 30.8881 17.1528 32.58 17.5564C34.5204 18.1084 35.1 18.7372 36.1242 19.231C37.3034 19.8424 38.3552 20.673 39.2232 21.6784C40.6308 23.2954 41.5704 24.1354 42.3876 25.777C43.0309 27.1241 43.5742 28.5166 44.013 29.9434C44.3122 29.6688 44.6748 29.4727 45.0684 29.3728C45.4831 29.2559 45.912 29.1968 46.3428 29.197C46.784 29.154 47.2269 29.258 47.6028 29.4928C47.8382 29.8532 47.9911 30.2611 48.0504 30.6874C48.1867 31.3394 48.1971 32.0115 48.081 32.6674C48.0276 33.0588 47.8725 33.4293 47.6314 33.7422C47.3902 34.055 47.0713 34.2993 46.7064 34.4506L44.913 34.9012C45.0358 36.4407 44.9793 37.9893 44.7444 39.5158C44.5407 40.9351 44.1522 42.3217 43.5888 43.6402C42.9866 45.0558 42.1038 46.3347 40.9938 47.3998H43.6746C43.9133 47.3998 44.1423 47.4946 44.311 47.6634C44.4798 47.8322 44.5746 48.0611 44.5746 48.2998C44.5746 48.5385 44.4798 48.7674 44.311 48.9362C44.1423 49.105 43.9133 49.1998 43.6746 49.1998H16.3254ZM44.79 33.2716C44.9579 33.3403 45.1379 33.3742 45.3192 33.3712C45.5853 33.3742 45.8475 33.307 46.0793 33.1762C46.311 33.0455 46.5042 32.8559 46.6392 32.6266C46.7958 32.1312 46.7698 31.5961 46.566 31.1182C46.4808 30.73 46.0488 30.499 45.411 30.499C45.009 30.499 44.0106 31.3876 44.1918 32.0734C44.3598 32.7088 44.6586 33.2734 44.7762 33.2734C44.7815 33.2735 44.7866 33.2722 44.7912 33.2698L44.79 33.2716ZM12.9396 29.1778C12.9061 29.6722 13.0031 30.1668 13.221 30.6118C13.3423 30.9615 13.5339 31.2827 13.7838 31.5556C13.7878 31.5564 13.7919 31.5564 13.7958 31.5556C13.8906 31.5556 14.0862 31.0948 14.2416 30.5068C14.4678 29.6518 14.5746 28.66 14.196 28.4434C14.0463 28.3493 13.8747 28.2958 13.698 28.288C13.329 28.2898 13.0668 28.597 12.9396 29.1778ZM10.4964 49.1998C10.2577 49.1998 10.0288 49.105 9.86004 48.9362C9.69126 48.7674 9.59644 48.5385 9.59644 48.2998C9.59644 48.0611 9.69126 47.8322 9.86004 47.6634C10.0288 47.4946 10.2577 47.3998 10.4964 47.3998H13.1868C13.4255 47.3998 13.6544 47.4946 13.8232 47.6634C13.992 47.8322 14.0868 48.0611 14.0868 48.2998C14.0868 48.5385 13.992 48.7674 13.8232 48.9362C13.6544 49.105 13.4255 49.1998 13.1868 49.1998H10.4964ZM28.6086 40.4686C27.7336 40.3385 26.895 40.0289 26.1453 39.5593C25.3956 39.0897 24.751 38.4703 24.252 37.7398C23.6883 36.9938 23.2341 36.1711 22.9032 35.2966C22.5799 34.4568 22.3934 33.5705 22.3506 32.6716V32.6638C22.2522 29.9482 22.2522 29.9482 21.5172 29.1838C21.3204 28.9792 21.0756 28.7248 20.7612 28.3498C20.1846 27.661 19.9476 27.1918 20.058 26.9542C20.0942 26.898 20.1455 26.8532 20.206 26.8247C20.2664 26.7963 20.3337 26.7855 20.4 26.7934C20.4455 26.7933 20.4908 26.7969 20.5356 26.8042C21.3064 27.6696 22.1306 28.4858 23.0034 29.248C23.7492 29.9092 24.5483 30.5077 25.3926 31.0372C26.1647 31.5449 27.0275 31.899 27.9336 32.08C28.4839 32.1702 29.0404 32.2168 29.598 32.2192C30.8096 32.2251 32.0066 31.9559 33.099 31.432C34.4134 30.7746 35.6334 29.9434 36.726 28.9606C37.3986 28.3876 37.848 28.0966 38.061 28.0966C38.0893 28.0941 38.1175 28.1018 38.1407 28.1181C38.1639 28.1345 38.1805 28.1585 38.1876 28.186C38.3286 28.6804 36.6954 31.0126 35.826 31.5592C35.0982 32.0164 34.944 32.7832 34.746 33.7534C34.615 34.5629 34.3727 35.3503 34.026 36.0934C33.9516 36.244 33.8784 36.3934 33.8004 36.5542C33.3902 37.5116 32.8415 38.4035 32.172 39.2014C31.7922 39.6221 31.3259 39.9555 30.8051 40.1789C30.2842 40.4023 29.7212 40.5104 29.1546 40.4956C28.98 40.4956 28.7952 40.4866 28.6086 40.4686ZM23.9094 34.6918C24.2685 35.7666 24.8469 36.7551 25.608 37.5946C26.4792 38.526 27.6347 39.142 28.8936 39.346C29.7704 39.262 30.5989 38.9053 31.2624 38.326C31.8643 37.7857 32.3522 37.1307 32.6976 36.3994C33.1963 35.339 33.5332 34.2099 33.6972 33.0496L33.7038 33.0076C32.5697 33.3879 31.3822 33.5854 30.186 33.5926C29.187 33.5931 28.1934 33.4444 27.2382 33.1516C26.4687 32.9146 25.7295 32.5886 25.0356 32.1802C24.3578 31.7931 23.734 31.3182 23.1804 30.7678C23.2269 32.1048 23.4726 33.4273 23.9094 34.6918ZM26.2494 26.6392C25.2294 25.9552 25.7412 24.331 26.2494 23.9614C26.7576 23.5918 27.5748 23.4814 27.8058 23.9614C28.0368 24.4414 27.8058 24.6514 27.8058 24.6514C27.6543 24.8794 27.55 25.1354 27.4992 25.4044C27.4992 25.6312 27.3414 26.8042 26.703 26.8042C26.5378 26.7962 26.3788 26.7389 26.2464 26.6398L26.2494 26.6392ZM32.5764 26.5534C32.1456 26.323 31.9374 26.5534 31.776 25.9378C31.7152 25.3194 31.7681 24.6951 31.932 24.0958C31.932 24.0958 32.3784 23.1436 33.0072 23.6266C33.636 24.1096 33.4422 26.1538 33.4422 26.1538C33.4422 26.1538 33.1308 26.6044 32.7744 26.6044C32.7042 26.6047 32.635 26.5872 32.5734 26.5534H32.5764Z" fill="black"/>
</svg>
